<svg width="44" height="44" viewBox="0 0 44 44" fill="none" xmlns="http://www.w3.org/2000/svg">
<rect width="44" height="44" rx="2" fill="white"/>
<path d="M17.2016 1.80337C16.8017 2.26626 15.5355 2.92752 14.4025 3.19202C13.2696 3.52266 12.0033 4.3823 11.6035 5.24194C11.2036 6.03545 10.2039 7.1596 9.40419 7.68861C8.47117 8.34987 8.00465 9.40789 8.00465 10.9288C8.00465 12.1852 7.73808 13.3755 7.33821 13.5738C6.47183 14.1028 6.47183 17.0124 7.33821 17.5414C7.73808 17.7398 8.00465 18.9301 8.00465 20.1203C8.00465 21.6412 8.47117 22.6331 9.47083 23.3605L11.0037 24.4185H8.87103C5.40552 24.4847 3.53947 27.6587 6.40519 28.7167C7.07163 28.9812 7.33821 30.3038 7.33821 33.5439C7.33821 37.247 7.07163 38.305 6.00532 39.2308C4.87236 40.1566 4.80572 40.6195 5.33887 41.6775C6.00532 42.9339 6.73841 43 22 43C37.2616 43 37.9947 42.9339 38.6611 41.6775C39.1943 40.6195 39.1276 40.1566 37.9947 39.2308C36.9284 38.305 36.6618 37.247 36.6618 33.5439C36.6618 30.3038 36.9284 28.9812 37.5948 28.7167C40.4605 27.6587 38.5945 24.4847 35.129 24.4185H32.9963L34.5292 23.3605C35.5288 22.6331 35.9953 21.6412 35.9953 20.1203C35.9953 18.9301 36.2619 17.7398 36.6618 17.5414C37.5282 17.0124 37.5282 14.1028 36.6618 13.5738C36.3286 13.3755 35.9953 12.1852 35.9953 10.9288C35.9953 9.40789 35.5288 8.34987 34.5958 7.68861C33.7961 7.1596 32.7964 6.03545 32.3965 5.24194C31.9967 4.44842 30.7971 3.52265 29.7974 3.25815C28.7311 2.99365 27.4648 2.39851 26.865 1.93563C25.4655 0.745354 18.1346 0.679228 17.2016 1.80337ZM26.6651 3.52266C27.5981 4.11779 28.7977 4.6468 29.4642 4.6468C30.1306 4.6468 31.0637 5.50644 31.5968 6.56446C32.1966 7.62248 33.063 8.61437 33.6628 8.81275C34.1959 9.07726 34.6625 10.003 34.6625 10.8627C34.6625 11.7884 34.9957 13.3093 35.4622 14.2351C36.062 15.4915 36.062 16.0866 35.4622 16.6818C34.9957 17.1447 34.6625 18.4011 34.6625 19.5252C34.6625 21.8396 31.7967 24.4847 29.2643 24.4847C27.9314 24.4847 27.998 24.3524 29.864 22.2364C31.9967 19.8558 33.1296 16.4834 32.2633 15.0947C31.9967 14.6319 31.4635 15.4915 30.9304 17.2769C30.4639 18.9301 29.131 21.1122 27.998 22.1702C26.0653 24.0218 25.5322 24.154 19.6674 24.3524C14.0693 24.6169 13.2696 24.4847 11.4035 23.096C9.8707 21.9719 9.33754 21.0461 9.33754 19.5252C9.33754 18.4011 9.00432 17.1447 8.53781 16.6818C7.93801 16.0866 7.93801 15.4915 8.53781 14.2351C9.00432 13.3093 9.33754 11.7884 9.33754 10.8627C9.33754 10.003 9.80406 9.07726 10.3372 8.81275C10.937 8.61437 11.8034 7.62248 12.4032 6.56446C12.9363 5.50644 13.936 4.6468 14.6025 4.6468C15.2689 4.6468 16.5352 4.11779 17.2682 3.45653C19.1343 2.00175 24.5325 2.00175 26.6651 3.52266ZM37.1949 26.6007C36.9284 27.262 33.3296 27.4603 22 27.4603C10.6704 27.4603 7.07163 27.262 6.8717 26.6007C6.60512 26.0056 9.93735 25.8072 22 25.8072C34.0627 25.8072 37.3949 26.0056 37.1949 26.6007ZM35.3289 39.0324H8.6711V29.1135H35.3289V39.0324ZM37.3282 41.0162C37.3282 41.413 31.7967 41.6775 22 41.6775C12.2033 41.6775 6.67176 41.413 6.67176 41.0162C6.67176 40.6195 12.2033 40.3549 22 40.3549C31.7967 40.3549 37.3282 40.6195 37.3282 41.0162Z" />
<path d="M19.2676 5.30806C15.2689 6.49833 11.3369 11.061 11.3369 14.4996C11.3369 16.7479 12.4698 16.0866 12.9363 13.5738C13.4695 10.9288 16.6684 7.4241 19.2009 6.89509C22.2666 6.23383 22.7331 5.96932 22.3332 5.30806C21.8667 4.58067 21.6668 4.58067 19.2676 5.30806Z" />
<path fill-rule="evenodd" clip-rule="evenodd" d="M13.8694 31.2295C13.6694 31.6924 13.6028 33.1472 13.6028 34.4036C13.6694 36.3212 13.936 36.7841 15.2689 36.9164C16.1353 37.0486 17.135 36.8503 17.5348 36.4535C18.4678 35.5277 25.5322 35.5277 26.4652 36.4535C26.8651 36.8503 27.8647 37.0486 28.7311 36.9164C30.064 36.7841 30.3306 36.3212 30.3972 34.4036C30.3972 33.1472 30.3306 31.6924 30.1306 31.2295C29.7974 30.3038 27.5981 30.1715 26.9983 31.0973C26.7984 31.4279 24.5325 31.7585 22 31.7585C19.4675 31.7585 17.2016 31.4279 17.0017 31.0973C16.4019 30.1715 14.2026 30.3038 13.8694 31.2295ZM27.9314 32.2214C27.3982 32.7504 25.1323 33.0811 22 33.0811C18.8677 33.0811 16.6018 32.7504 16.0686 32.2214C15.2689 31.5602 15.2023 31.6263 15.6021 32.6843C15.8021 33.3456 15.6688 34.3375 15.2689 34.8003C14.6691 35.5277 14.7357 35.7261 15.5355 35.7261C16.1353 35.7261 16.8017 35.3955 17.0017 35.0649C17.2016 34.6681 19.4675 34.4036 22 34.4036C24.5325 34.4036 26.7984 34.6681 26.9983 35.0649C27.1983 35.3955 27.8647 35.7261 28.4645 35.7261C29.2643 35.7261 29.3309 35.5277 28.7311 34.8003C28.3312 34.3375 28.1979 33.3456 28.3979 32.6843C28.7977 31.6263 28.7311 31.5602 27.9314 32.2214Z" />
</svg>
