<svg width="44" height="44" viewBox="0 0 44 44" fill="none" xmlns="http://www.w3.org/2000/svg">
<rect width="44" height="44" rx="2" fill="white"/>
<path d="M14.0016 5.10318C11.7469 6.43322 10.5906 8.2259 10.0703 10.9438C9.72344 12.6787 9.37656 13.1413 7.87344 13.6039C5.56094 14.24 4 17.1314 4 20.6011C4 21.989 4.75156 26.0948 5.73438 29.7958C6.65938 33.439 7.46875 37.14 7.46875 38.0074C7.46875 38.8748 7.75781 39.8579 8.1625 40.2627C9.14531 41.2458 35.8547 41.2458 36.8375 40.2627C37.2422 39.8579 37.5312 38.7592 37.5312 37.8339C37.5312 36.8508 38.3406 33.1498 39.2656 29.6801C40.1906 26.1526 41 22.1625 41 20.7168C41 17.1314 39.4391 14.24 37.1266 13.5461C35.5656 13.1413 35.2188 12.6787 34.9297 10.8282C34.0047 5.50797 28.6859 2.50091 24.2344 4.81403C22.6734 5.62363 22.3266 5.62363 20.7656 4.81403C18.5109 3.65747 16.1984 3.7153 14.0016 5.10318ZM21.4594 6.95368L22.5 8.28372L23.5984 6.83802C25.1016 4.92969 29.2063 4.81403 31.1719 6.54888C32.9641 8.11024 34.1781 11.1751 33.7156 12.91C33.4266 14.1822 33.5422 14.3557 34.9297 14.3557C37.1844 14.3557 38.5141 15.2809 39.2078 17.3049C40.1328 19.965 40.0172 22.2203 38.5719 27.4248C37.8781 29.9115 37.0688 33.6703 36.6641 35.7521L36.0281 39.5109H8.97188L8.33594 35.7521C7.93125 33.6703 7.12188 29.9115 6.42813 27.4248C4.925 22.0468 4.86719 19.6759 5.96563 16.9579C6.65938 15.2809 7.17969 14.8761 9.0875 14.587C11.2844 14.24 11.3422 14.1822 11.2844 11.9847C11.2266 9.55594 12.7875 7.0115 15.0422 5.79711C16.95 4.75621 20.2453 5.39232 21.4594 6.95368Z" />
<path d="M15.2734 8.2259C12.6719 10.8282 12.6719 16.7266 15.2734 19.3289C17.0078 21.0637 18.1641 21.0637 19.8984 19.3289C22.5 16.7266 22.5 10.8282 19.8984 8.2259C19.1469 7.47413 18.1063 6.83802 17.5859 6.83802C17.0656 6.83802 16.025 7.47413 15.2734 8.2259ZM20.0719 11.0016C21.0547 13.6039 20.5922 16.8423 18.9734 18.4615C17.5281 19.9072 15.9672 19.1554 15.0422 16.611C14.175 14.1822 14.2328 12.9678 15.2734 10.539C15.9672 8.80418 16.3719 8.51504 17.7016 8.68852C18.9156 8.80418 19.4359 9.32463 20.0719 11.0016Z" />
<path d="M25.1016 8.2259C23.4828 9.84509 22.7891 12.91 23.3672 15.8592C23.7719 18.1145 25.9109 20.7168 27.4141 20.7168C30.0734 20.7168 32.2703 15.8592 31.4609 11.6956C31.0562 9.44029 28.9172 6.83802 27.4141 6.83802C26.8937 6.83802 25.8531 7.47413 25.1016 8.2259ZM29.9 11.0016C30.8828 13.6039 30.4203 16.8423 28.8016 18.4615C27.3563 19.9072 25.7953 19.1554 24.8703 16.611C24.0031 14.1822 24.0609 12.9678 25.1016 10.539C25.7953 8.80418 26.2 8.51504 27.5297 8.68852C28.7438 8.80418 29.2641 9.32463 29.9 11.0016Z" />
<path d="M7.46875 17.2471C6.19687 18.5193 6.02344 19.9072 6.94844 22.2781C7.87344 24.7069 9.78125 26.4996 11.5734 26.4996C13.8281 26.4996 14.5797 25.2274 14.2328 22.0468C14.0016 19.9072 13.5391 18.9241 12.1516 17.7097C10.0125 15.8014 9.02969 15.6857 7.46875 17.2471ZM11.5734 18.9241C14.4063 21.8155 13.4813 26.7887 10.4172 24.9382C9.89688 24.6491 9.02969 23.4347 8.39375 22.2203C7.52656 20.4855 7.46875 19.7337 7.98906 18.635C8.79844 16.8423 9.49219 16.9001 11.5734 18.9241Z" />
<path d="M32.8484 17.7097C31.4609 18.9241 30.9984 19.9072 30.7672 22.0468C30.4203 25.2274 31.1719 26.4996 33.4266 26.4996C37.5313 26.4996 40.3641 18.4615 36.9531 16.6688C35.3344 15.8014 34.8141 15.917 32.8484 17.7097ZM37.0109 18.635C37.5313 19.7337 37.4734 20.4855 36.6063 22.2203C35.9703 23.4347 35.1031 24.6491 34.5828 24.9382C31.5188 26.7887 30.5938 21.8155 33.4266 18.9241C35.5078 16.9001 36.2016 16.8423 37.0109 18.635Z" />
<path d="M18.5109 23.6082C13.8281 27.02 10.9375 33.6703 12.9031 36.6195C14.175 38.5278 16.0828 38.9326 18.7422 37.8339C21.4594 36.6773 23.5406 36.6773 26.2578 37.8339C30.3625 39.5109 33.3688 37.2556 32.6172 32.9185C31.8078 28.1188 26.0844 21.8733 22.5 21.8733C21.6328 21.8733 19.8406 22.6829 18.5109 23.6082ZM25.9109 24.7647C28.5703 26.7309 30.3047 29.2175 31.1719 32.3402C32.3281 36.6195 30.4781 37.9496 25.7375 36.3304C22.5 35.1738 22.5 35.1738 19.2625 36.3304C15.8516 37.4869 14.2906 37.2556 13.5969 35.4051C13.1344 34.1907 14.0594 30.7789 15.5625 28.4079C16.8344 26.2683 21.0547 23.0299 22.5 23.0299C23.0203 23.0299 24.5813 23.8395 25.9109 24.7647Z" />
</svg>
