<svg width="44" height="44" viewBox="0 0 44 44" fill="none" xmlns="http://www.w3.org/2000/svg">
<rect width="44" height="44" fill="white"/>
<path d="M13.9853 4.32757C13.629 5.57574 14.4602 8.9042 15.1133 8.9042C15.2914 8.9042 15.3507 7.53715 15.3507 5.93236C15.2914 2.84166 14.5196 2.00954 13.9853 4.32757Z" />
<path d="M29.3023 7.1211C29.3023 8.72589 29.3617 10.0929 29.4804 10.0929C30.1335 10.0929 30.9646 6.70504 30.6084 5.51631C30.0741 3.19828 29.3617 4.03039 29.3023 7.1211Z" />
<path d="M22.8312 5.75405C22.5937 6.58617 22 7.1211 21.2876 7.1211C19.3284 7.1211 17.8442 8.25039 17.8442 9.79575C17.8442 10.7467 17.488 11.2817 16.9537 11.2817C16.4787 11.2817 15.5288 11.8166 14.8164 12.5298C13.8665 13.4808 13.629 14.1941 13.9853 15.7989C14.2227 17.2848 14.104 17.8197 13.5103 17.8197C12.2636 17.8197 10.72 19.8405 10.72 21.4453C10.72 22.8718 8.04841 25.5465 6.62356 25.5465C6.26735 25.5465 5.73303 26.0814 5.37682 26.7352C5.02061 27.389 4.36756 27.9239 3.89261 27.9239C2.46777 27.9239 2.82398 30.658 4.42693 31.9062C5.31745 32.6194 5.97051 33.9865 6.26735 35.5318C6.44546 36.8989 7.21725 38.682 7.8703 39.5141L8.9983 41H35.0017L36.1297 39.5141C36.7828 38.682 37.5545 36.8989 37.7327 35.5318C38.0295 33.9865 38.6825 32.6194 39.5731 31.9062C41.176 30.658 41.5322 27.9239 40.1074 27.9239C39.6324 27.9239 38.9794 27.389 38.6232 26.7352C38.267 26.0814 37.7326 25.5465 37.3764 25.5465C35.8922 25.5465 33.28 22.8718 33.28 21.3859C33.28 19.7811 31.6771 17.8197 30.371 17.8197C29.896 17.8197 29.7773 17.2253 30.0147 15.7989C30.371 14.1941 30.1335 13.4808 29.1836 12.5298C28.4712 11.8166 27.5213 11.2817 27.0463 11.2817C26.4526 11.2817 26.1558 10.6873 26.1558 9.558C26.1558 8.48814 25.5621 7.06166 24.6716 6.11067L23.1874 4.44645L22.8312 5.75405ZM24.7903 10.3307C24.5528 10.8656 23.8404 11.2817 23.1874 11.2817C22.5343 11.2817 22 11.5194 22 11.876C22 12.1732 23.1874 12.4704 24.6122 12.4704C29.0649 12.4704 30.5491 15.145 27.2244 17.2253C25.1465 18.4735 25.5027 18.8301 29.0649 19.1273C31.499 19.3651 32.6863 20.851 31.7364 22.3963C31.1427 23.3473 30.0147 23.4662 22 23.4662C13.9853 23.4662 12.8573 23.3473 12.2636 22.3963C11.7886 21.6831 11.7886 21.0887 12.2636 20.316C12.7979 19.4839 13.9853 19.2462 18.6754 19.1273C24.731 18.949 26.7495 17.8197 20.9314 17.8197C17.4286 17.8197 14.8758 16.6904 14.8758 15.145C14.8758 13.7186 16.6568 12.4704 18.7941 12.4704C20.872 12.4704 21.5251 11.6977 19.9221 11.0439C18.2598 10.4495 18.9722 8.96363 21.1095 8.54758C22.2375 8.36927 23.3655 7.89377 23.6029 7.53715C24.1373 6.6456 25.2059 9.20138 24.7903 10.3307ZM12.0855 25.3682C11.7886 26.1408 11.9074 26.2597 12.8573 25.8436C14.8164 24.9521 23.128 24.7738 24.1373 25.6059C24.731 26.1408 25.2059 26.1408 25.4434 25.7248C25.6808 25.4276 27.5213 24.9521 29.5398 24.7738C32.627 24.536 33.4581 24.6549 34.5268 25.6059C35.2392 26.2003 36.1891 26.7352 36.664 26.7352C37.0796 26.7352 37.4358 26.9729 37.4358 27.3296C37.4358 27.6862 31.9145 27.9239 22 27.9239C12.0855 27.9239 6.56419 27.6862 6.56419 27.3296C6.56419 26.9729 6.9204 26.7352 7.33598 26.7352C7.81093 26.7352 8.76083 26.2003 9.53262 25.5465C11.1949 24.0605 12.6198 24.0011 12.0855 25.3682ZM39.8105 29.5882C39.8105 31.3118 38.0295 31.4901 22 31.4901C5.97051 31.4901 4.18945 31.3118 4.18945 29.5882C4.18945 29.3504 12.2042 29.1127 22 29.1127C31.7958 29.1127 39.8105 29.3504 39.8105 29.5882ZM36.8421 33.5704C36.8421 34.3431 35.536 34.462 28.5305 34.462C23.3655 34.462 20.2189 34.6997 20.2189 35.0563C20.2189 35.413 23.3061 35.6507 28.2337 35.6507C36.7828 35.6507 37.1983 35.829 35.2985 38.5037C34.408 39.8113 34.1112 39.8113 22 39.8113C9.88883 39.8113 9.59199 39.8113 8.70146 38.5037C6.86104 35.9479 7.33598 35.6507 13.4509 35.6507C17.0724 35.6507 18.9722 35.413 18.7347 35.0563C18.5566 34.6997 15.885 34.462 12.7385 34.462C8.16714 34.462 7.15788 34.2837 7.15788 33.5704C7.15788 32.7977 9.17641 32.6789 22 32.6789C34.8236 32.6789 36.8421 32.7977 36.8421 33.5704Z" />
<path d="M11.0168 7.7749C10.4825 8.54758 11.1949 12.4704 11.848 12.4704C12.0855 12.4704 12.2636 11.2817 12.2636 9.79575C12.2042 7.18053 11.7886 6.46729 11.0168 7.7749Z" />
<path d="M32.3301 10.9845C32.2707 13.8374 33.0425 14.5507 33.6362 12.2327C34.0518 10.4496 33.755 8.78532 32.9832 8.48814C32.627 8.36927 32.3895 9.49856 32.3301 10.9845Z" />
</svg>
