<svg width="44" height="44" viewBox="0 0 44 44" fill="none" xmlns="http://www.w3.org/2000/svg">
<rect width="44" height="44" rx="2" transform="matrix(1 0 0 -1 0 44)" fill="white"/>
<path d="M8.5625 40.8125C7.1875 40.1875 5.125 38.6875 4 37.375C2.25 35.375 2 34.625 2 31.5C2 26.0625 4.5625 23.625 8.5 25.125C10 25.6875 10.125 25.5625 10.125 24C10.1875 23.0625 10.5625 21.3125 11 20.0625C11.625 18.1875 11.625 17.625 10.9375 16.625C9.6875 14.9375 9.9375 11.1875 11.375 9.3125C12.0625 8.4375 12.625 6.8125 12.625 5.625C12.625 2.25 13.3125 2 22 2C30.6875 2 31.375 2.25 31.375 5.625C31.375 6.8125 31.9375 8.4375 32.625 9.3125C34.0625 11.1875 34.3125 14.9375 33.0625 16.625C32.375 17.625 32.375 18.1875 33 20.0625C33.4375 21.3125 33.8125 23.0625 33.875 24C33.875 25.5625 34 25.6875 35.5 25.125C39.5 23.5625 42 26.0625 42 31.625C42 35.125 41.875 35.4375 39.3125 37.9375C36.5 40.8125 32.5 42.4375 29.9375 41.75C29.0625 41.5625 27.5625 40.5625 26.625 39.5625C25.25 38.0625 24.4375 37.75 21.875 37.75C19.75 37.75 18.625 38.0625 18.0625 38.8125C16.8125 40.5625 14.3125 42 12.625 42C11.75 42 9.9375 41.4375 8.5625 40.8125ZM16.8125 37.875C18.3125 36.25 19.5 35.25 19.5 35.6875C19.5 36.0625 20.5625 36.375 22 36.375C23.4375 36.375 24.5 36.0625 24.5 35.6875C24.5 35.25 25.6875 36.25 27.1875 37.875C30.25 41.125 31.4375 41.375 35.0625 39.5C38.875 37.5625 40.75 34.9375 40.75 31.4375C40.75 27.875 39.6875 26.25 37.3125 26.25C34.75 26.25 33.875 27.8125 33.875 32.75C33.875 36.0625 33.625 37.125 32.875 37.4375C32.375 37.625 31.625 37.5 31.1875 37.0625C30.6875 36.5625 30.75 36.375 31.5625 36.375C32.8125 36.375 33.0625 34.125 31.875 33.6875C31.25 33.4375 31.25 33.25 31.875 32.5625C32.8125 31.5625 32.875 24.5 32 21.25C31.5 19.4375 31.125 19.0625 30.125 19.3125C28.4375 19.75 28.5625 19.3125 30.75 17.125C34.25 13.625 32.25 8.25 27.5 8.25C23.25 8.25 21.125 11.75 23.875 14.1875C24.5625 14.8125 25.125 15.875 25.125 16.5C25.125 18.0625 22.5 19 20.4375 18.25C18.5625 17.5 18.4375 15.75 20.125 14.1875C22.875 11.75 20.75 8.25 16.5 8.25C11.75 8.25 9.75 13.625 13.25 17.125C15.4375 19.3125 15.5625 19.75 13.875 19.3125C12.875 19.0625 12.5 19.4375 12 21.25C11.125 24.5 11.1875 31.5625 12.1875 32.5625C12.8125 33.25 12.8125 33.4375 12.1875 33.6875C10.9375 34.125 11.1875 36.375 12.4375 36.375C13.25 36.375 13.3125 36.5625 12.8125 37.0625C12.375 37.5 11.625 37.625 11.125 37.4375C10.375 37.125 10.125 36.0625 10.125 32.75C10.125 27.8125 9.25 26.25 6.6875 26.25C4.3125 26.25 3.25 27.875 3.25 31.4375C3.25 34.875 5.0625 37.5 8.8125 39.5C12.375 41.375 13.75 41.125 16.8125 37.875ZM23.875 16.4375C23.875 16.125 23.4375 15.5625 22.9375 15.125C22.1875 14.5 21.8125 14.5 21.0625 15.125C19.625 16.3125 19.9375 17 22 17C23.0625 17 23.875 16.75 23.875 16.4375ZM22.0625 6.375C22.375 6.375 22.625 6.8125 22.625 7.3125C22.625 7.875 23 8.0625 23.625 7.8125C24.875 7.375 24.5625 4.5625 23.125 3.625C21.6875 2.75 19.875 3.8125 19.625 5.75C19.375 7.375 20.9375 8.8125 21.25 7.3125C21.375 6.8125 21.75 6.375 22.0625 6.375ZM18.3125 4.875C18.75 3.25 18.6875 3.1875 16.5 3.375C14.5 3.5625 14.1875 3.8125 14 5.3125C13.8125 7 13.9375 7.0625 15.8125 6.875C17.4375 6.6875 17.9375 6.25 18.3125 4.875ZM30 5.3125C29.8125 3.8125 29.5 3.5625 27.5 3.375C25.5625 3.1875 25.1875 3.375 25.4375 4.125C25.625 4.6875 25.875 5.5 26 5.9375C26.125 6.375 27.125 6.8125 28.25 6.875C30.0625 7 30.1875 6.875 30 5.3125Z" />
<path d="M13.625 30.4375C12.9375 29.9375 12.5625 29.375 12.75 29.1875C13.1875 28.6875 16.375 30.1875 16.375 30.875C16.375 31.6875 14.9375 31.4375 13.625 30.4375Z" />
<path d="M27.625 30.875C27.625 30.1875 30.8125 28.6875 31.25 29.1875C31.6875 29.625 29.4375 31.3125 28.4375 31.375C28 31.375 27.625 31.125 27.625 30.875Z" />
<path d="M14.875 27.6875C13.5625 26.25 14 24.125 15.6875 23.5625C18.5 22.6875 20.4375 25.5625 18.5 27.6875C17.9375 28.3125 17.125 28.875 16.6875 28.875C16.25 28.875 15.4375 28.3125 14.875 27.6875ZM17.8125 26.5625C18.0625 26.375 17.9375 25.8125 17.5625 25.3125C17 24.6875 16.625 24.6875 16 25.1875C15.5 25.5625 15.3125 26.125 15.5 26.4375C15.875 27.125 17.25 27.1875 17.8125 26.5625Z" />
<path d="M25.5 27.6875C24.1875 26.25 24.625 24.125 26.3125 23.5625C29.125 22.6875 31.0625 25.5625 29.125 27.6875C28.5625 28.3125 27.75 28.875 27.3125 28.875C26.875 28.875 26.0625 28.3125 25.5 27.6875ZM28.4375 26.5625C28.6875 26.375 28.5625 25.8125 28.1875 25.3125C27.625 24.6875 27.25 24.6875 26.625 25.1875C26.125 25.5625 25.9375 26.125 26.125 26.4375C26.5 27.125 27.875 27.1875 28.4375 26.5625Z" />
<path d="M18.25 12.5625C18.25 12.25 18.5625 12.125 18.875 12.3125C19.25 12.5 19.5 12.8125 19.5 13C19.5 13.125 19.25 13.25 18.875 13.25C18.5625 13.25 18.25 12.9375 18.25 12.5625Z" />
<path d="M24.8125 12.625C25 12.3125 25.3125 12 25.5 12C25.625 12 25.75 12.3125 25.75 12.625C25.75 13 25.4375 13.25 25.0625 13.25C24.75 13.25 24.625 13 24.8125 12.625Z" />
<path d="M13.875 11.375C13.875 11.0625 14.1875 10.75 14.5 10.75C14.875 10.75 15.125 11.0625 15.125 11.375C15.125 11.75 14.875 12 14.5 12C14.1875 12 13.875 11.75 13.875 11.375Z" />
<path d="M28.875 11.375C28.875 11.0625 29.1875 10.75 29.5 10.75C29.875 10.75 30.125 11.0625 30.125 11.375C30.125 11.75 29.875 12 29.5 12C29.1875 12 28.875 11.75 28.875 11.375Z" />
</svg>
