<svg width="44" height="44" viewBox="0 0 44 44" fill="none" xmlns="http://www.w3.org/2000/svg">
<rect width="44" height="44" rx="2" fill="white"/>
<path d="M8.79925 10.5453C8.86211 10.8003 9.55358 11.8838 10.3708 12.9674C12.2566 15.262 13.3252 14.5609 11.5651 12.2025C10.3079 10.4816 8.79925 9.52548 8.79925 10.5453Z" />
<path d="M32.7492 11.7564C31.3662 13.541 31.0519 14.5609 31.932 14.5609C32.4349 14.5609 35.2007 11.119 35.2007 10.4178C35.2007 9.58922 33.8807 10.2904 32.7492 11.7564Z" />
<path d="M13.4509 16.4731C11.8166 17.1104 10.9365 18.3852 12.068 18.3852C13.1366 18.3852 15.5253 16.728 15.0853 16.2818C14.8967 16.0906 14.1424 16.2181 13.4509 16.4731Z" />
<path d="M28.9147 16.5368C28.9147 17.1742 30.9891 18.3852 32.1206 18.3852C32.6863 18.3852 32.6863 18.194 32.1206 17.4929C31.2405 16.4093 28.9147 15.7082 28.9147 16.5368Z" />
<path d="M9.23928 26.7351C6.09624 27.4999 4.27328 28.5197 4.71331 29.2846C4.96475 29.6033 5.65622 29.5396 6.47341 29.0934C7.22773 28.6472 8.98783 28.2011 10.3708 28.0098C11.7537 27.7549 12.8223 27.3724 12.7595 26.99C12.6338 26.1614 12.0051 26.0977 9.23928 26.7351Z" />
<path d="M31.1777 26.4801C30.4862 27.245 31.5548 27.9461 33.3778 27.9461C34.4464 27.9461 36.0808 28.3923 37.0866 28.9022C38.2809 29.5396 39.0352 29.6033 39.2867 29.2209C39.9782 28.1373 32.1834 25.524 31.1777 26.4801Z" />
<path d="M9.49072 30.8781C8.42209 31.7704 7.54204 32.9177 7.54204 33.4277C7.54204 34.7024 7.85634 34.575 9.93074 32.4078C10.9994 31.3243 12.3195 30.4957 12.8223 30.4957C13.3881 30.4957 13.8281 30.177 13.8281 29.8583C13.8281 28.6472 11.4394 29.2209 9.49072 30.8781Z" />
<path d="M30.1719 29.8583C30.1719 30.177 30.6119 30.4957 31.1777 30.4957C31.6805 30.4957 33.0006 31.3243 34.0693 32.4078C36.1437 34.575 36.458 34.7024 36.458 33.4277C36.458 32.2166 32.8749 29.2209 31.3662 29.2209C30.7376 29.2209 30.1719 29.4758 30.1719 29.8583Z" />
<path fill-rule="evenodd" clip-rule="evenodd" d="M13.3252 19.7875C11.628 21.5084 12.9481 24.1217 15.5253 24.1217C17.3483 24.1217 18.5427 22.0184 17.5997 20.2974C16.8454 18.8951 14.5196 18.5764 13.3252 19.7875ZM14.1424 22.2096C14.8339 23.3569 16.3425 22.9107 16.3425 21.5722C16.3425 20.871 15.9654 20.2974 15.4625 20.2974C14.331 20.2974 13.6395 21.3172 14.1424 22.2096Z" />
<path fill-rule="evenodd" clip-rule="evenodd" d="M26.4002 20.2337C25.3945 22.2096 26.6517 24.2492 28.7261 23.9943C30.8634 23.7393 31.9949 21.9546 31.0519 20.4249C30.0462 18.7677 27.2803 18.6402 26.4002 20.2337ZM28.789 22.7195C29.3547 22.592 29.8576 22.0821 29.8576 21.5722C29.8576 21.0623 29.3547 20.5524 28.789 20.4249C27.9718 20.2974 27.6575 20.6161 27.6575 21.5722C27.6575 22.5283 27.9718 22.847 28.789 22.7195Z" />
<path fill-rule="evenodd" clip-rule="evenodd" d="M5.90766 5.95609C4.21042 7.10339 3.58181 11.0552 4.399 15.007C4.96475 17.5566 4.90189 18.3852 3.7704 21.126C1.69599 25.9702 1.44455 30.3044 3.01607 33.4914C5.34191 38.0169 10.0565 40.0565 14.771 38.4631C16.9083 37.6982 18.1655 37.6344 19.7999 38.0806C21.1828 38.4631 22.8172 38.4631 24.2001 38.0806C25.8345 37.6344 27.0917 37.6982 29.229 38.4631C33.9435 40.0565 38.6581 38.0169 40.9839 33.4914C42.5554 30.3044 42.304 25.9702 40.2296 21.126C39.0981 18.3852 39.0352 17.5566 39.601 15.007C40.481 10.9277 39.7896 7.10339 37.9666 5.89235C36.7094 5 36.3322 5 34.7607 5.89235C33.8178 6.466 32.2463 7.54957 31.3034 8.2507C29.8576 9.46174 29.4176 9.52548 27.5946 8.88809C25.0173 7.99574 18.9827 7.99574 16.4054 8.88809C14.771 9.46174 14.1424 9.398 12.8223 8.44191C9.86788 6.33852 7.85634 5 7.54204 5C7.35346 5 6.59913 5.44617 5.90766 5.95609ZM14.4567 12.33C14.4567 11.8201 13.1366 10.4178 11.5651 9.14304C8.54781 6.84843 6.72485 6.33852 5.90766 7.67704C5.02761 9.07931 5.46763 15.7719 6.53627 17.4291C7.79348 19.3413 7.85634 20.3611 6.66199 19.915C5.65622 19.5325 3.89612 23.5481 3.39323 27.6274C2.45032 34.5112 9.17641 39.6104 15.3368 36.7421C17.2854 35.9135 17.8512 34.3837 17.7883 30.3044C17.7255 27.245 18.4169 26.2889 19.0455 28.5835C19.2341 29.4121 19.6742 29.7308 20.3656 29.4758C21.6228 28.9659 21.6857 26.9263 20.4285 26.4164C18.6684 25.779 19.4856 25.0778 22 25.0778C24.5144 25.0778 25.3316 25.779 23.5715 26.4164C22.3143 26.9263 22.3772 28.9659 23.6344 29.4758C24.3258 29.7308 24.7659 29.4121 24.9545 28.5835C25.5831 26.2889 26.2745 27.245 26.2117 30.3682C26.1488 34.3837 26.7146 35.9135 28.6632 36.7421C34.8236 39.6104 41.5497 34.5112 40.6068 27.6274C40.1039 23.5481 38.3438 19.5325 37.338 19.915C36.2065 20.3611 36.2065 19.66 37.4637 17.1742C38.4695 15.1345 38.8467 8.95183 38.0923 7.61331C37.8409 7.23087 37.1494 6.91217 36.5208 6.91217C35.0122 6.91217 29.5433 11.1827 29.5433 12.33C29.5433 12.8399 29.229 13.2861 28.8518 13.2861C28.4747 13.2861 28.2861 12.7124 28.4746 12.075C28.8518 10.4816 26.2745 9.46174 22 9.46174C17.7255 9.46174 15.1482 10.4816 15.5253 12.075C15.7139 12.7124 15.5253 13.2861 15.1482 13.2861C14.771 13.2861 14.4567 12.8399 14.4567 12.33ZM25.2688 36.4871C25.8345 35.9135 24.6401 31.643 23.7601 31.0693C23.3201 30.7506 22.5029 30.4957 22 30.4957C21.4971 30.4957 20.6799 30.7506 20.2399 31.0693C19.3598 31.643 18.1655 35.9135 18.7312 36.4871C19.1713 36.9971 24.8287 36.9971 25.2688 36.4871Z" />
</svg>
