<svg width="44" height="44" viewBox="0 0 44 44" fill="none" xmlns="http://www.w3.org/2000/svg">
<rect width="44" height="44" rx="2" fill="white"/>
<path d="M17.0859 4.95224C4.60736 9.43972 0.907969 25.4583 10.184 34.9445C13.773 38.6367 17.0859 40 22.6074 40C26.3067 40 27.7975 39.716 29.7853 38.7503C33.7055 36.7622 36.0798 34.4901 38.0675 30.5706C39.7791 27.3328 39.9448 26.5376 40 22.1637C40 17.6762 39.8344 17.0514 38.0123 13.6432C33.816 5.80429 24.9816 2.11207 17.0859 4.95224ZM23.4356 6.65635C22.8282 9.38291 21.6687 10.6326 18.0798 12.6207C13.773 14.9497 10.2945 18.4715 9.35582 21.3116C7.92024 25.7991 9.96319 30.6842 14.8221 34.3197C16.8098 35.7965 17.6932 36.0806 20.3436 36.0806C25.589 36.0806 27.3006 34.5469 33.4847 24.1518C34.4785 22.5045 38.2883 20.5164 39.0061 21.2548C39.227 21.4253 39.0613 23.1862 38.7301 25.1175C37.0736 34.3765 28.6258 40.4544 19.7914 38.7503C7.86503 36.4782 2.23312 22.6181 9.07975 12.4503C11.8957 8.36045 17.4724 5.17945 22 5.12265C23.7117 5.12265 23.8221 5.23626 23.4356 6.65635ZM25.9202 6.54274C25.9202 7.79242 23.9877 11.4846 22.8282 12.5639C22.2209 13.0751 20.2331 14.3248 18.3006 15.3473C14.3251 17.5058 11.7301 20.4028 11.2331 23.1862C10.7362 25.7991 12.8344 29.7754 15.8712 32.0475C20.8405 35.6829 25.4233 33.8084 29.2331 26.5944C30.2822 24.5494 31.4969 22.4477 31.9387 21.9365C32.8773 20.7436 36.5767 18.7555 37.7914 18.7555C39.1718 18.7555 38.7301 19.7212 37.1288 20.1756C34.589 20.8004 32.546 22.7317 30.8896 26.0831C26.6933 34.7173 21.1166 37.2734 15.4294 33.2404C14.2699 32.3883 12.6687 30.741 11.8405 29.5482C7.92024 23.6974 10.4049 17.9602 18.7975 13.6432C22.0552 11.9391 23.9325 9.83734 24.5399 7.22438C24.9816 5.57708 25.9202 5.12265 25.9202 6.54274ZM31.773 8.13324C36.0245 11.1438 39.7239 17.6194 37.2393 17.6194C34.5337 17.6194 30.1166 21.4821 28.7914 25.0039C27.7975 27.6736 24.9264 31.0819 22.9386 32.0475C20.3436 33.2972 17.8589 32.5587 15.1534 29.8322C12.5031 27.0488 11.7853 24.4926 13 21.8229C13.9386 19.778 17.2515 16.8242 19.8466 15.8017C23.2699 14.4384 27.0245 9.89415 27.0245 7.11077C27.0245 5.74749 28.9018 6.14512 31.773 8.13324Z" />
</svg>
