<svg width="44" height="44" viewBox="0 0 44 44" fill="none" xmlns="http://www.w3.org/2000/svg">
<rect width="44" height="44" rx="2" fill="white"/>
<path d="M13.3452 8.34384C15.603 10.5778 16.481 10.2675 14.8504 7.84741C14.2859 6.97864 13.2825 6.29604 12.5299 6.29604C11.4637 6.29604 11.5892 6.54426 13.3452 8.34384Z" />
<path d="M29.1496 7.84741C27.519 10.2675 28.397 10.5778 30.6548 8.34384C32.4108 6.54426 32.5363 6.29604 31.4701 6.29604C30.7175 6.29604 29.7141 6.97864 29.1496 7.84741Z" />
<path d="M14.725 15.6042C13.2198 16.1627 12.1536 17.4658 13.1571 17.4658C14.4114 17.4658 16.9827 16.2248 16.9827 15.6042C16.9827 14.8596 16.5437 14.8596 14.725 15.6042Z" />
<path d="M27.0173 15.6042C27.0173 16.2248 29.5886 17.4658 30.9684 17.4658C32.0345 17.4658 30.0904 15.7904 28.4597 15.2939C27.5817 15.0457 27.0173 15.1698 27.0173 15.6042Z" />
<path d="M14.4741 19.0172C13.8469 19.7619 13.8469 20.3204 14.3487 21.4994C15.2267 23.4231 17.8607 23.6092 18.8642 21.8097C20.3694 19.0793 16.481 16.6591 14.4741 19.0172ZM17.798 19.6998C18.3625 20.3204 17.5472 21.8097 16.6691 21.8097C15.603 21.8097 14.9131 20.7547 15.4148 19.948C15.8538 19.2654 17.1709 19.1413 17.798 19.6998Z" />
<path d="M25.1358 19.3275C24.1951 21.065 25.3867 23.0507 27.3936 23.0507C29.3378 23.0507 30.7802 20.5065 29.5259 19.0172C28.397 17.7141 25.9511 17.8382 25.1358 19.3275ZM28.7733 20.3824C29.0869 21.4994 27.0173 22.182 26.3901 21.1271C26.0765 20.6927 26.0138 20.0721 26.202 19.7619C26.641 19.0172 28.397 19.4516 28.7733 20.3824Z" />
<path d="M18.8642 32.3589C18.8642 32.6692 19.1778 32.9795 19.4914 32.9795C19.8677 32.9795 20.1185 32.6692 20.1185 32.3589C20.1185 31.9866 19.8677 31.7384 19.4914 31.7384C19.1778 31.7384 18.8642 31.9866 18.8642 32.3589Z" />
<path d="M23.8815 32.3589C23.8815 32.6692 24.1951 32.9795 24.5086 32.9795C24.8849 32.9795 25.1358 32.6692 25.1358 32.3589C25.1358 31.9866 24.8849 31.7384 24.5086 31.7384C24.1951 31.7384 23.8815 31.9866 23.8815 32.3589Z" />
<path fill-rule="evenodd" clip-rule="evenodd" d="M7.07361 3.00715C6.00744 5.11701 5.69386 8.28178 6.32102 11.0742C6.82274 13.3082 6.76003 14.8596 5.94472 18.1484C4.94127 22.1199 4.81583 22.3681 3.43608 22.0579C1.74275 21.6235 1.68004 21.7476 2.55806 24.0436C3.05979 25.2847 3.05979 25.8432 2.49534 26.1535C0.676583 27.3325 5.19213 31.4902 10.3976 33.4138C13.2198 34.4688 13.5333 34.779 13.7215 36.7027C13.8469 37.8818 14.2232 39.1849 14.5368 39.5572C16.1047 41.4809 27.8953 41.4809 29.4632 39.5572C29.7768 39.1849 30.1531 37.8818 30.2785 36.7027C30.4666 34.779 30.7802 34.4688 33.6024 33.4138C38.8079 31.4902 43.3234 27.3325 41.5047 26.1535C40.9402 25.8432 40.9402 25.2847 41.4419 24.0436C42.32 21.7476 42.2572 21.6235 40.5639 22.0579C39.1842 22.3681 39.0587 22.1199 38.0553 18.2105C37.3027 14.9837 37.1773 13.3082 37.6163 10.8881C38.1807 7.97151 37.8044 4.24824 36.801 2.63483C36.1111 1.5799 35.0449 1.76606 30.6548 3.75181C25.0104 6.23399 18.9896 6.23399 13.3452 3.75181C8.70422 1.64196 7.8262 1.5799 7.07361 3.00715ZM17.2336 7.8474C16.9827 7.28891 15.5403 6.23399 13.9096 5.42728C9.51953 3.25537 8.39064 3.00715 7.95163 4.18619C7.13632 6.3581 7.57533 11.6327 8.82965 13.9287C10.084 16.1627 10.084 16.2248 8.89237 16.2248C7.63805 16.2248 7.32447 16.7832 6.6346 20.8168C6.38373 22.4302 5.882 23.299 5.00398 23.4851C4.06324 23.7333 3.93781 23.9816 4.50225 24.6642C5.0667 25.3468 5.00398 25.7811 4.43954 26.4637C3.37337 27.7048 4.81583 29.3803 8.45336 31.1178C11.7146 32.6692 12.5926 32.6692 12.5926 31.1799C12.5926 29.8147 14.7877 26.8981 15.3521 27.4566C15.603 27.7048 15.2894 28.6977 14.6622 29.8147C13.6588 31.5522 13.5961 31.8625 14.4741 33.4138C15.5403 35.3375 18.8642 36.0822 20.4948 34.779C21.6237 33.8482 21.6237 30.8696 20.4321 29.8767C19.1151 28.7598 19.2405 26.9602 20.7457 26.5879C23.8188 25.7811 25.763 28.0772 23.5679 29.8767C22.3763 30.8696 22.3763 33.8482 23.5052 34.779C25.1358 36.0822 28.4597 35.3375 29.5259 33.4138C30.4039 31.8625 30.3412 31.5522 29.3378 29.8147C28.7106 28.6977 28.397 27.7048 28.6479 27.4566C29.2123 26.8981 31.4074 29.8147 31.4074 31.1799C31.4074 32.6692 32.2854 32.6692 35.5466 31.1178C39.1842 29.3803 40.6266 27.7048 39.5605 26.4637C38.996 25.7811 38.9333 25.3468 39.4977 24.6642C40.0622 23.9816 39.9368 23.7333 38.996 23.4851C38.118 23.299 37.6163 22.4302 37.3654 20.8168C36.6755 16.7832 36.362 16.2248 35.1076 16.2248C33.916 16.2248 33.916 16.1627 35.1703 13.9287C35.9857 12.3774 36.4247 10.3916 36.4247 8.15767C36.4247 3.00715 36.0484 2.75894 31.4701 4.74468C29.3378 5.73755 27.3309 7.04069 26.9546 7.66124C26.5783 8.28178 26.0765 8.65411 25.7002 8.46795C25.3867 8.21973 25.2612 7.78535 25.4494 7.47508C25.7002 7.1648 24.1951 6.91659 22 6.91659C19.8049 6.91659 18.2998 7.1648 18.5506 7.47508C18.7388 7.78535 18.6133 8.21973 18.237 8.46795C17.8607 8.65411 17.4217 8.40589 17.2336 7.8474ZM21.2474 28.7598C21.8119 29.3182 22.1881 29.3182 22.7526 28.7598C23.317 28.2013 23.1916 28.0151 22 28.0151C20.8084 28.0151 20.683 28.2013 21.2474 28.7598ZM22.6272 36.9509C22.6272 37.5094 22.3763 37.9438 22.0627 37.9438C21.7491 37.9438 21.3728 37.5094 21.2474 36.9509C20.9965 35.5857 20.1185 36.5786 20.1185 38.3161C20.1185 39.8055 21.4356 40.6122 22.9407 40.0537C24.0069 39.6193 24.1951 37.013 23.2543 36.3925C22.9407 36.2063 22.6272 36.4545 22.6272 36.9509ZM18.8642 38.3782C18.8642 37.8818 18.4252 37.2612 17.8607 37.0751C16.042 36.3925 14.9758 36.6407 15.2267 37.7577C15.4775 39.1849 18.8642 39.6813 18.8642 38.3782ZM25.1358 38.3161C25.1358 39.6813 28.5225 39.1849 28.7733 37.7577C28.8988 37.0751 28.5852 36.7027 27.8326 36.7648C26.0138 36.8268 25.1358 37.3853 25.1358 38.3161Z" />
</svg>
