<svg width="44" height="44" viewBox="0 0 44 44" fill="none" xmlns="http://www.w3.org/2000/svg">
<rect width="44" height="44" rx="2" fill="white"/>
<path fill-rule="evenodd" clip-rule="evenodd" d="M19.5517 3.76208C12.5391 6.27245 8.2236 11.8311 8.2236 18.4657C8.2236 20.5577 7.92392 21.5738 7.38449 21.8128C6.06588 22.291 5.76619 23.7853 6.54537 25.2198C6.96493 25.937 7.32455 26.8336 7.38449 27.252C7.62423 28.5072 10.7409 32.2129 11.5801 32.2129C12.1195 32.2129 12.4192 32.8704 12.4192 34.0061C12.4192 36.3969 10.6211 36.3969 9.24253 34.0061C7.44442 31.0773 3.36872 30.898 3.0091 33.767C2.88922 34.4245 3.96809 36.1578 5.40657 37.7716C7.44442 40.1027 8.40341 40.7004 10.3214 40.9395C13.498 41.3579 16.375 39.5647 17.0943 36.8751C17.4539 35.6199 17.9334 34.9624 18.4728 35.1417C18.9523 35.2613 21.11 35.5003 23.3277 35.6796C30.4002 36.1578 35.8545 33.2888 39.0911 27.3117C40.8292 24.1439 41.2488 20.7967 40.6494 14.5806C40.5895 13.5645 40.6494 12.0702 40.8892 11.2334C41.2488 9.91846 40.8292 9.20121 38.192 6.5713C35.315 3.70231 33.3371 2.80575 32.558 4.06093C32.3182 4.35979 30.9996 4.24024 29.3813 3.76208C25.9649 2.74597 22.4286 2.74597 19.5517 3.76208ZM30.64 7.5874C31.8387 5.91382 31.539 5.61497 28.3624 4.77818C24.2267 3.76208 20.5706 4.1207 20.0312 5.5552C19.7914 6.15291 20.6305 6.45176 23.028 6.75061C24.8261 6.92993 27.1037 7.52763 28.0028 8.0058C29.6211 8.84259 29.8009 8.78282 30.64 7.5874ZM27.9428 16.9116C31.1195 14.1622 35.315 7.88626 35.0753 6.27245C34.7157 4.06093 33.457 4.65864 31.8387 7.76672C28.5422 14.3415 20.8703 19.7806 11.8198 21.9324C8.64316 22.7094 7.62423 23.1876 7.62423 23.9646C7.62423 27.1922 21.6495 22.291 27.9428 16.9116ZM17.334 13.5047C17.5138 10.4564 17.8135 7.52763 18.0532 6.92992C18.7725 5.49543 17.3939 5.61497 16.6148 7.10924C14.8766 10.3966 14.6368 19.9002 16.3151 19.3025C16.8545 19.0634 17.1542 17.2105 17.334 13.5047ZM36.5138 11.2932C37.4128 9.55984 38.0122 7.88626 37.8324 7.64717C37.233 6.63107 36.6936 7.10924 35.1952 9.91846C34.3561 11.5323 32.0185 14.461 29.9807 16.4932C25.7851 20.737 18.6526 24.5025 12.599 25.6979C9.18259 26.4152 7.92392 27.3715 9.30246 28.2681C10.2615 28.806 16.8545 26.7738 21.8892 24.383C27.8829 21.514 34.1762 15.8955 36.5138 11.2932ZM13.9176 17.091C13.7378 15.4174 13.7977 12.6679 14.1573 10.9943C14.457 9.38053 14.6368 7.88626 14.517 7.82648C13.9176 7.16901 12.2993 11.0541 11.9996 13.8633C11.5801 17.868 12.1195 20.2588 13.3782 20.2588C14.1573 20.2588 14.2173 19.7209 13.9176 17.091ZM27.5832 12.0702C29.0217 10.7553 28.8419 9.55984 27.2236 8.96213C26.4444 8.66328 24.3466 8.24488 22.4886 8.0058C19.4917 7.64717 19.1321 7.70694 18.8924 8.78282C18.5927 9.85869 18.9523 10.0978 21.4097 10.6955C23.028 11.0541 24.8261 11.7714 25.4255 12.1897C26.3245 12.8472 26.6841 12.8472 27.5832 12.0702ZM23.6873 27.0727C28.9617 24.5025 35.5548 18.5852 38.252 13.8633C39.5106 11.7116 39.9302 10.3966 39.5706 10.038C39.151 9.61961 38.3119 10.5162 37.1132 12.6081C34.8356 16.553 29.9807 21.3347 25.3655 24.0841C22.4286 25.8772 19.9712 26.7738 11.2804 29.583C10.681 29.7623 10.6211 30.0612 11.0406 30.4796C11.9397 31.3762 18.2331 29.7026 23.6873 27.0727ZM24.6463 14.5208C25.7851 13.7438 25.7252 13.684 23.7472 12.907C22.6084 12.4288 20.9901 11.8909 20.0911 11.6518C18.6526 11.2932 18.4129 11.4725 18.4129 12.6679C18.4129 14.5208 22.7883 15.8358 24.6463 14.5208ZM9.78196 15.5369C9.18259 18.2864 9.54221 21.5738 10.3813 20.976C10.7409 20.737 10.8608 19.2427 10.6211 16.9714L10.6116 16.8804C10.2614 13.5038 10.2572 13.4634 9.78196 15.5369ZM20.9901 17.1507C22.2488 16.4932 22.2488 16.4932 21.11 16.0151C19.1321 15.2381 18.4129 15.4174 18.4129 16.6726C18.4129 18.0473 19.1321 18.1668 20.9901 17.1507ZM38.6715 25.2795C39.0911 24.4427 39.5706 22.5301 39.7504 20.976C40.1699 17.5093 39.3908 14.9392 38.3119 16.2542C37.8324 16.7921 37.6526 18.8243 37.7125 21.9324C37.8923 26.2956 37.9523 26.5945 38.6715 25.2795ZM34.2961 31.2566C35.1352 30.7187 35.9744 29.7026 36.1542 28.9853C36.334 28.2681 36.3939 25.7577 36.274 23.3071C36.0942 18.9438 36.0942 18.9438 34.9554 20.199C34.1163 21.1554 33.7567 22.5899 33.5769 25.5186C33.5169 27.7301 33.2772 30.121 33.0974 30.898C32.7977 32.2129 32.7977 32.2129 34.2961 31.2566ZM28.722 32.8704C30.1005 33.767 30.9996 33.4681 31.6589 31.7945C31.9586 30.898 32.1983 28.6865 32.0785 26.7738C31.8987 23.7853 31.7788 23.4266 30.9996 24.0244C30.4602 24.4428 29.5611 26.475 29.0217 28.5669C28.1226 31.675 28.1226 32.5118 28.722 32.8704ZM25.5453 30.0612C26.6841 31.0773 26.7441 31.0773 27.4034 29.8221C27.763 29.1646 28.0028 28.029 27.8829 27.4313C27.7031 26.3554 27.6431 26.3554 26.0848 27.3117C24.1069 28.5072 24.0469 28.7462 25.5453 30.0612ZM28.0028 34.3049C28.0028 34.1854 26.864 32.99 25.4854 31.675C22.9081 29.2842 22.4286 29.0451 20.9901 29.6428C19.0722 30.3601 23.987 34.6038 26.7441 34.6038C27.4034 34.6038 28.0028 34.4842 28.0028 34.3049ZM15.8356 31.6152C15.3561 32.0336 21.17 34.8429 21.8892 34.4842C22.1289 34.3647 21.5296 33.4681 20.5107 32.5118C18.8324 30.7784 17.0343 30.4198 15.8356 31.6152ZM8.82297 35.7992C8.82297 35.4406 8.28354 34.6635 7.62423 34.0061C5.22676 31.6152 3.06904 33.0497 5.34663 35.6199C9.48228 40.1625 9.42234 40.1625 11.6999 39.7441C12.8987 39.5647 14.3971 38.8475 14.9965 38.1302C16.2551 36.5164 16.3151 33.6474 15.0564 33.1693C13.6779 32.6313 13.6179 32.6911 13.6179 34.6038C13.6179 36.7555 11.8198 37.9509 10.0217 36.9946C9.3624 36.636 8.82297 36.098 8.82297 35.7992Z" />
</svg>
