<svg width="44" height="44" viewBox="0 0 44 44" fill="none" xmlns="http://www.w3.org/2000/svg">
<rect width="44" height="44" rx="2" fill="white"/>
<path d="M27.0931 6.33373C25.4885 7.88153 25.9045 11.632 27.8657 13.8346L29.5892 15.7396L33.3334 13.7751C35.4135 12.644 37.4936 11.5129 37.9096 11.1557C38.801 10.4414 38.8605 7.0481 37.9096 6.0956C36.7804 4.96452 28.2223 5.14311 27.0931 6.33373ZM37.3153 8.4173C37.4936 9.78651 37.0181 10.2628 33.7494 12.1082C30.3024 14.0727 29.9458 14.1323 28.9949 13.2988C28.2223 12.644 27.9251 11.4534 27.9251 9.42933V6.51232L32.5608 6.69091C37.0181 6.8695 37.137 6.92903 37.3153 8.4173Z" />
<path fill-rule="evenodd" clip-rule="evenodd" d="M14.7909 4.36921C11.3439 6.21466 9.5015 9.36979 9.5015 13.537C9.5015 16.3349 9.38264 16.6921 8.25345 16.6921C6.47052 16.6921 3.73668 19.7282 3.26123 22.1689C2.72635 24.8478 4.09327 27.6457 6.70824 29.1936C8.43174 30.2651 9.79866 30.3842 22.3981 30.3842C35.5918 30.3842 36.2455 30.4437 36.8398 31.5748C37.3153 32.4082 37.3153 33.1226 36.8398 33.956C36.2455 35.0276 35.5918 35.1466 28.8166 35.1466C24.5376 35.1466 21.3283 34.9085 21.0906 34.5513C20.5557 33.7179 15.088 33.7774 13.7211 34.6704C12.8296 35.2062 12.2948 35.0871 10.9873 34.0751C8.90719 32.4082 5.34132 32.3487 3.97441 33.837C2.72635 35.2062 2.66692 39.4924 3.85555 40.5044C5.22246 41.6355 6.52995 40.7425 6.52995 38.7185C6.52995 36.6349 7.59971 36.3968 9.08548 38.1232C9.6798 38.8375 10.809 39.3138 11.8193 39.3138C12.8296 39.3138 13.7805 39.6114 13.9588 39.9091C14.4343 40.683 20.6151 40.683 21.0906 39.9091C21.3283 39.5519 24.4781 39.3138 28.5789 39.3138C36.5427 39.3138 38.5633 38.6589 40.1085 35.7419C41.2972 33.4202 41.2377 31.6938 39.8114 29.3721C38.1473 26.6337 35.8889 26.217 21.2689 26.217H8.31288L7.36198 24.7287C6.47052 23.3595 6.47052 23.1214 7.36198 21.7522C8.61004 19.8472 11.2844 19.7877 13.7805 21.5736C15.9795 23.1214 20.1991 23.5977 23.5272 22.7047C25.7856 22.1094 37.7313 15.2038 39.9302 13.2393C40.7623 12.5845 41 11.3938 41 8.35777C41 6.0956 40.7028 4.13109 40.2868 3.71437C39.8114 3.23812 36.3049 3 28.5195 3C18.0596 3 17.287 3.05953 14.7909 4.36921ZM21.982 5.38123C23.2895 5.38123 24.3593 5.08358 24.3593 4.78592C24.3593 4.42874 23.2895 4.19062 21.982 4.19062C20.6746 4.19062 19.6048 4.42874 19.6048 4.78592C19.6048 5.08358 20.6746 5.38123 21.982 5.38123ZM39.8114 12.2273L39.6925 8.35777L39.5142 4.48827L32.6202 4.30968C26.0828 4.19062 25.6668 4.25015 25.3696 5.38123C25.1319 6.39326 24.597 6.57185 22.0415 6.57185C19.8425 6.57185 18.8916 6.33372 18.6539 5.67889C17.8219 3.53578 13.2457 5.79795 11.7005 9.13167C9.5015 13.7155 11.1656 18.8352 15.4446 20.9783C19.7237 23.1809 23.1112 22.2284 33.0362 16.2754L39.8114 12.2273ZM9.26378 19.0733C10.0364 19.0733 10.6901 18.7757 10.6901 18.478C10.6901 18.1208 10.0364 17.8827 9.26378 17.8827C7.12426 17.8827 4.74701 20.2044 4.39043 22.7047C4.09327 24.5501 4.33099 25.205 5.81677 26.8718L7.59971 28.8959L22.2198 29.1936C30.7184 29.3721 37.0181 29.7293 37.3747 30.0865C38.6228 31.3962 38.6822 33.7179 37.553 35.2062C36.4238 36.5754 35.9484 36.6349 28.876 36.8135C24.7753 36.9326 21.3877 37.2897 21.3877 37.5874C21.3877 38.4208 35.1163 38.2422 36.8398 37.3493C39.7519 35.861 40.4651 32.2892 38.385 29.4912C37.6124 28.3601 36.6615 28.3006 22.8735 28.0029L8.19402 27.7053L6.76767 26.0384C5.99507 25.1455 5.34132 23.8953 5.34132 23.3C5.34132 21.5736 7.65914 19.0733 9.26378 19.0733ZM12.7702 36.9326C12.2948 36.9326 11.2844 36.2777 10.5713 35.4443C9.14492 33.837 6.11393 33.4202 4.86587 34.6704C4.03384 35.5038 3.91498 39.0757 4.68758 39.6114C4.98474 39.79 5.34132 39.0757 5.46019 38.0636C5.57905 36.9921 6.11393 35.861 6.64881 35.5038C7.54028 34.968 8.01572 35.1466 9.20435 36.5158C10.6901 38.0636 13.6617 38.778 13.6617 37.5279C13.6617 37.1707 13.2457 36.9326 12.7702 36.9326ZM17.5841 39.3138C20.2585 39.3138 20.2585 39.3138 20.0802 37.3493C19.9019 35.6229 19.6642 35.4443 17.8219 35.2657C15.2663 35.0276 14.8503 35.3848 14.8503 37.6469C14.8503 39.2543 14.9692 39.3138 17.5841 39.3138Z" />
</svg>
